<?xml version="1.0" encoding="UTF-8"?>
<svg id="Layer_1" xmlns="http://www.w3.org/2000/svg" version="1.1" viewBox="0 0 621 196">
  <!-- Generator: Adobe Illustrator 30.0.0, SVG Export Plug-In . SVG Version: 2.1.1 Build 123)  -->
  <path d="M546,196c-41.4,0-75-33.6-75-75s33.6-75,75-75,75,33.6,75,75-33.6,75-75,75ZM546,165c24.3,0,44-19.7,44-44s-19.7-44-44-44-44,19.7-44,44,19.7,44,44,44ZM389,196c-41.4,0-75-33.6-75-75s33.6-75,75-75,75,33.6,75,75-33.6,75-75,75ZM389,165c24.3,0,44-19.7,44-44s-19.7-44-44-44-44,19.7-44,44,19.7,44,44,44ZM307,120c0,41.9-33.6,76-75,76s-75-34-75-75.9,30.5-74.1,75-74.1,31.6,3.5,44,12.6V15.1c0-8.3,7.3-15.1,15.5-15.1s15.5,6.8,15.5,15.1v104.9ZM232,165c24.3,0,44-19.7,44-44s-19.7-44-44-44-44,19.7-44,44,19.7,44,44,44Z"/>
  <path d="M75,196C33.6,196,0,162.4,0,121S33.6,46,75,46s75,33.6,75,75-33.6,75-75,75ZM75,165c24.3,0,44-19.7,44-44s-19.7-44-44-44-44,19.7-44,44,19.7,44,44,44Z"/>
</svg>